<svg width="99" height="22" viewBox="0 0 99 22" fill="none" xmlns="http://www.w3.org/2000/svg">
<path fill-rule="evenodd" clip-rule="evenodd" d="M14.0876 15.693C14.0876 19.1334 11.3478 21.6283 6.99586 21.6283C4.47241 21.5584 2.08101 20.4851 0.35144 18.6462L1.80689 17.0366C3.16916 18.3336 4.77202 19.5942 6.96705 19.5942C9.40523 19.5942 12.034 18.2269 12.034 15.7718C12.034 13.7326 10.4134 12.4025 7.00772 11.3537C3.1268 10.1677 1.15541 8.55804 1.15541 5.53192C1.15541 2.53715 3.69017 0.079483 7.30169 0.079483C9.99911 0.079483 11.6867 1.2291 13.3294 2.69811L11.8985 4.28657C10.4583 3.01072 9.08585 2.14575 7.40166 2.14575C5.31252 2.14575 3.25048 3.49276 3.25048 5.43195C3.25048 7.189 4.26032 8.30812 7.82525 9.39929C11.0903 10.4049 14.0876 11.9629 14.0876 15.6921V15.693ZM31.7013 2.06324C31.7013 3.00677 32.4659 3.77166 33.4092 3.77166C33.8622 3.77188 34.2967 3.59196 34.6171 3.27152C34.9374 2.95108 35.1173 2.51641 35.1171 2.06324C35.1171 1.1197 34.3524 0.354814 33.4092 0.354814C32.4659 0.354814 31.7013 1.1197 31.7013 2.06324ZM39.3106 0.705544H41.3693V21.291H39.3106V0.705544ZM48.2315 0.705544H46.1728V21.291H48.2315V0.705544ZM53.0349 20.6058C53.0349 20.6058 54.3023 21.6351 58.5246 21.6351L58.5221 21.6342C62.6902 21.6342 66.073 18.5861 66.073 14.4214C66.073 10.2566 62.6927 7.22034 58.5246 7.22034C57.3423 7.18868 56.1685 7.42866 55.0935 7.92181V0.705544H53.0349V20.6058ZM68.4756 14.4388C68.4753 18.6053 71.8528 21.9833 76.0197 21.9837C80.1868 21.9837 83.565 18.6061 83.5655 14.4394C83.5655 10.2729 80.1876 6.89517 76.0208 6.89502C71.854 6.89486 68.4759 10.2723 68.4756 14.4388ZM96.0529 21.2962H98.7402L92.7989 14.2197L98.3394 7.58292H95.6674L91.4595 12.6236L87.2304 7.58292H84.5432L90.1235 14.229L84.2238 21.2962H86.8949L91.4621 15.8251L96.0529 21.2962ZM76.0358 8.93334C73.8135 8.93299 71.8099 10.2714 70.9594 12.3245C70.1088 14.3775 70.5788 16.7407 72.1501 18.3121C73.7215 19.8835 76.0848 20.3535 78.1378 19.5029C80.1908 18.6523 81.5292 16.6487 81.5289 14.4264C81.5284 11.3929 79.0694 8.93381 76.0358 8.93334ZM58.5246 9.28322C57.2952 9.30051 56.0996 9.68789 55.0935 10.3949V18.8914C56.1598 19.4096 57.3411 19.6459 58.5246 19.5777C61.5558 19.5777 64.0143 17.4595 64.0143 14.4304C64.0143 11.4014 61.5533 9.28237 58.5221 9.28237L58.5246 9.28322ZM26.6131 21.292L19.4121 14.091L25.9311 7.56769H28.842L22.323 14.091L29.524 21.292H26.6131ZM17.3492 0.705544V21.291H19.4079V0.705544H17.3492ZM32.4527 21.292H34.5114V7.56769H32.4527V21.292Z" fill="black"/>
</svg>
